<svg width="328" height="74" viewBox="0 0 328 74" fill="none" xmlns="http://www.w3.org/2000/svg">
<path d="M39.9688 10.496C40.4748 6.954 41.4868 4.401 43.0048 2.837C44.5228 1.273 46.5238 0.490997 49.0078 0.490997C51.4918 0.490997 53.3088 1.227 54.4588 2.699C55.6548 4.125 56.2528 5.574 56.2528 7.046C56.2528 7.506 56.2068 7.966 56.1148 8.426C55.1028 13.532 51.7218 17.511 45.9718 20.363L41.1418 53H29.5498L21.3388 16.637L17.5438 43.547C17.0378 46.951 15.9798 49.458 14.3698 51.068C12.8058 52.678 10.9658 53.483 8.84982 53.483C6.73382 53.483 4.96282 52.862 3.53682 51.62C2.15682 50.378 1.30582 48.607 0.983819 46.307C0.937819 45.939 0.914819 45.571 0.914819 45.203C0.914819 40.649 4.34182 36.739 11.1958 33.473L14.1628 11.255C15.3128 10.749 16.3018 10.496 17.1298 10.496C18.0038 10.496 18.7398 10.565 19.3378 10.703C18.2798 9.047 16.6008 8.219 14.3008 8.219C12.0008 8.219 9.97682 9.415 8.22882 11.807L6.91782 5.873C7.79182 4.677 9.30982 3.481 11.4718 2.285C13.6798 1.043 16.0948 0.421998 18.7168 0.421998C21.3848 0.421998 23.6388 1.227 25.4788 2.837C27.3188 4.401 28.6528 7.046 29.4808 10.772L35.9668 38.096L39.9688 10.496ZM46.8688 14.429C49.7208 12.405 51.1468 10.519 51.1468 8.771C51.1468 8.449 51.0318 8.081 50.8018 7.667C50.5718 7.253 50.2268 7.046 49.7668 7.046C48.8928 7.046 48.2948 7.529 47.9728 8.495C47.5128 9.829 47.1448 11.807 46.8688 14.429ZM10.5058 39.2C7.33182 40.994 5.74482 42.742 5.74482 44.444C5.74482 46.146 6.36582 46.997 7.60782 46.997C8.43582 46.997 9.03382 46.468 9.40182 45.41C9.76982 44.306 10.1148 42.351 10.4368 39.545L10.5058 39.2ZM60.8392 2.216C61.8972 1.112 63.1852 0.559997 64.7032 0.559997C66.2212 0.559997 67.5092 1.112 68.5672 2.216C69.6712 3.274 70.2232 4.562 70.2232 6.08C70.2232 7.598 69.6712 8.886 68.5672 9.944C67.5092 11.002 66.2212 11.531 64.7032 11.531C63.1852 11.531 61.8972 11.002 60.8392 9.944C59.7812 8.886 59.2522 7.598 59.2522 6.08C59.2522 4.562 59.7812 3.274 60.8392 2.216ZM58.0102 22.433C58.4702 21.605 59.3442 20.984 60.6322 20.57C61.9202 20.11 63.1852 19.88 64.4272 19.88C65.7152 19.88 66.8422 20.041 67.8082 20.363C66.0142 34.209 65.1172 41.201 65.1172 41.339C64.8872 42.259 64.7722 43.041 64.7722 43.685C64.7722 44.283 64.8182 44.812 64.9102 45.272C65.0942 46.468 65.9222 47.066 67.3942 47.066C68.9122 47.066 70.2922 46.1 71.5342 44.168C72.8222 42.19 73.7882 39.959 74.4322 37.475C74.7542 37.659 75.2602 38.211 75.9502 39.131C76.6402 40.051 77.0542 40.741 77.1922 41.201C76.2722 44.881 74.7082 47.848 72.5002 50.102C70.2922 52.356 67.6472 53.483 64.5652 53.483C61.4832 53.483 59.1832 52.724 57.6652 51.206C56.1932 49.688 55.4572 47.733 55.4572 45.341C55.4572 44.835 55.4802 44.306 55.5262 43.754L58.0102 22.433ZM106.617 28.16C106.617 32.944 103.765 36.601 98.0609 39.131C98.1989 39.959 98.4059 40.948 98.6819 42.098C99.5099 45.502 100.89 47.25 102.822 47.342C102.96 47.342 103.098 47.342 103.236 47.342C106.916 47.342 109.653 44.099 111.447 37.613C112.413 38.487 113.333 39.798 114.207 41.546C113.563 44.03 112.643 46.123 111.447 47.825C110.297 49.527 109.032 50.746 107.652 51.482C105.214 52.77 102.914 53.414 100.752 53.414C95.6919 53.414 92.1499 50.585 90.1259 44.927C89.3439 42.673 88.8149 40.373 88.5389 38.027C91.1609 37.383 93.2309 36.325 94.7489 34.853C96.2669 33.335 97.0259 31.725 97.0259 30.023C97.0259 27.079 95.5539 25.607 92.6099 25.607C90.9999 25.607 89.6199 26.228 88.4699 27.47C87.3199 28.666 86.5609 30.115 86.1929 31.817C85.9169 34.163 85.4569 37.866 84.8129 42.926C84.2149 47.94 83.8239 51.298 83.6399 53H74.4629C77.7749 24.802 79.7759 7.483 80.4659 1.043C81.4319 0.674998 82.7429 0.490997 84.3989 0.490997C87.9869 0.490997 89.7809 1.549 89.7809 3.665V4.079C88.8609 12.405 88.0099 18.776 87.2279 23.192C89.7579 20.846 92.9319 19.673 96.7499 19.673C99.6019 19.673 101.948 20.409 103.788 21.881C105.674 23.353 106.617 25.446 106.617 28.16ZM147.54 44.513C146.804 47.365 145.631 49.573 144.021 51.137C142.411 52.655 140.502 53.414 138.294 53.414C136.132 53.414 134.453 52.977 133.257 52.103C132.107 51.229 131.026 49.757 130.014 47.687L127.806 43.409L124.425 48.308C122.217 51.482 119.917 53.069 117.525 53.069C115.685 53.069 114.259 52.563 113.247 51.551C112.281 50.493 111.798 49.228 111.798 47.756C111.798 45.272 112.764 43.34 114.696 41.96C116.674 40.534 118.767 39.821 120.975 39.821C121.619 39.821 122.286 39.89 122.976 40.028L124.632 37.544C121.32 31.564 119.503 28.321 119.181 27.815C118.629 27.033 118.1 26.642 117.594 26.642C117.134 26.642 116.743 26.826 116.421 27.194C116.099 27.516 115.938 27.976 115.938 28.574C115.938 29.172 116.03 29.839 116.214 30.575L114.489 31.058C114.075 30.506 113.73 29.724 113.454 28.712C113.178 27.654 113.04 26.826 113.04 26.228C113.04 23.974 113.753 22.226 115.179 20.984C116.605 19.696 118.468 19.052 120.768 19.052C123.574 19.052 125.759 20.57 127.323 23.606L130.152 29.057L133.947 23.123C135.051 21.421 136.063 20.294 136.983 19.742C137.903 19.144 139.076 18.845 140.502 18.845C141.974 18.845 143.239 19.374 144.297 20.432C145.355 21.444 145.884 22.663 145.884 24.089C145.884 26.527 145.01 28.413 143.262 29.747C141.514 31.081 139.582 31.748 137.466 31.748C137.052 31.748 136.523 31.702 135.879 31.61L133.395 35.267C136.523 41.339 138.248 44.674 138.57 45.272C139.26 46.514 140.134 47.135 141.192 47.135C142.618 47.135 143.745 45.87 144.573 43.34L144.849 42.512C144.895 42.374 145.01 41.914 145.194 41.132L147.54 44.513ZM141.606 24.158C141.146 24.158 140.709 24.411 140.295 24.917C139.927 25.377 139.03 26.734 137.604 28.988C138.846 28.988 140.019 28.689 141.123 28.091C142.227 27.447 142.802 26.642 142.848 25.676C142.894 24.664 142.48 24.158 141.606 24.158ZM120.699 42.581C119.411 42.581 118.169 42.903 116.973 43.547C115.777 44.191 115.179 44.996 115.179 45.962C115.179 46.928 115.593 47.411 116.421 47.411C117.387 47.411 118.997 45.801 121.251 42.581H120.699ZM170.915 19.811C173.445 19.811 175.768 20.225 177.884 21.053C179.31 20.179 180.805 19.742 182.369 19.742C183.933 19.742 185.175 19.949 186.095 20.363L183.611 39.821C187.015 37.199 189.591 34.807 191.339 32.645L193.34 36.854C190.718 39.614 187.222 42.558 182.852 45.686L180.989 60.107C180.483 64.431 179.057 67.743 176.711 70.043C174.411 72.389 171.421 73.562 167.741 73.562C165.625 73.562 163.555 72.872 161.531 71.492C159.415 70.02 158.357 67.651 158.357 64.385C158.357 60.383 160.266 56.726 164.084 53.414C160.818 53.184 158.012 51.827 155.666 49.343C153.32 46.859 152.147 43.616 152.147 39.614C152.147 33.588 153.918 28.781 157.46 25.193C161.002 21.605 165.487 19.811 170.915 19.811ZM171.95 25.193C169.006 25.193 166.66 26.32 164.912 28.574C163.21 30.782 162.198 34.094 161.876 38.51C161.83 38.924 161.807 39.315 161.807 39.683C161.807 41.937 162.336 43.731 163.394 45.065C164.498 46.399 165.901 47.066 167.603 47.066C170.501 47.066 172.686 45.042 174.158 40.994L175.883 26.021C174.457 25.469 173.146 25.193 171.95 25.193ZM163.67 63.35C163.67 64.592 164.015 65.558 164.705 66.248C165.441 66.984 166.269 67.352 167.189 67.352C169.765 67.352 171.26 65.719 171.674 62.453L172.847 52.103C166.729 55.737 163.67 59.486 163.67 63.35ZM213.228 28.85C213.228 26.826 212.285 25.814 210.399 25.814C208.559 25.814 207.087 27.01 205.983 29.402C210.951 33.312 213.435 37.705 213.435 42.581C213.435 46.123 212.446 48.814 210.468 50.654C208.49 52.494 206.006 53.414 203.016 53.414C200.026 53.414 197.841 52.494 196.461 50.654C195.081 48.768 194.391 46.399 194.391 43.547C194.391 42.673 194.414 42.029 194.46 41.615L196.875 20.57C198.531 20.064 200.21 19.811 201.912 19.811C204.718 19.811 206.121 20.846 206.121 22.916V23.054C207.961 20.892 210.307 19.811 213.159 19.811C215.229 19.811 216.839 20.294 217.989 21.26C219.139 22.18 219.714 23.422 219.714 24.986C219.714 26.55 219.116 27.838 217.92 28.85C216.77 29.816 215.252 30.299 213.366 30.299C213.274 30.299 213.182 30.299 213.09 30.299C213.182 29.793 213.228 29.31 213.228 28.85ZM208.95 42.236C208.95 39.568 207.57 36.9 204.81 34.232C203.982 40.856 203.568 44.191 203.568 44.237C203.568 46.169 204.35 47.135 205.914 47.135C207.938 47.135 208.95 45.502 208.95 42.236ZM255.808 53.345C251.576 53.345 248.77 51.873 247.39 48.929C244.998 51.919 241.916 53.414 238.144 53.414C234.418 53.414 231.267 52.149 228.691 49.619C226.161 47.089 224.896 43.754 224.896 39.614C224.896 33.588 226.667 28.781 230.209 25.193C233.751 21.605 238.236 19.811 243.664 19.811C243.802 19.811 243.94 19.811 244.078 19.811C246.378 19.811 248.494 20.202 250.426 20.984C251.668 20.202 253.163 19.811 254.911 19.811C256.705 19.811 257.993 20.041 258.775 20.501C258.361 23.905 257.924 27.263 257.464 30.575C257.004 33.841 256.682 36.164 256.498 37.544C256.084 40.672 255.877 42.926 255.877 44.306C255.877 46.146 256.613 47.066 258.085 47.066C259.235 47.066 260.454 46.307 261.742 44.789C263.03 43.225 264.157 40.787 265.123 37.475C266.457 38.671 267.377 40.005 267.883 41.477C266.549 45.847 264.755 48.929 262.501 50.723C260.247 52.471 258.016 53.345 255.808 53.345ZM244.699 25.193C241.755 25.193 239.409 26.32 237.661 28.574C235.959 30.782 234.947 34.094 234.625 38.51C234.579 38.924 234.556 39.315 234.556 39.683C234.556 41.937 235.085 43.731 236.143 45.065C237.247 46.399 238.65 47.066 240.352 47.066C243.25 47.066 245.435 45.019 246.907 40.925L248.563 26.021C247.229 25.469 245.941 25.193 244.699 25.193ZM286.158 53L288.78 30.092C288.78 28.804 288.458 27.746 287.814 26.918C287.216 26.044 286.135 25.607 284.571 25.607C283.007 25.607 281.719 26.366 280.707 27.884C279.695 29.356 279.051 30.92 278.775 32.576C277.165 44.03 276.268 50.838 276.084 53H266.838L270.633 20.57C272.565 20.064 274.037 19.811 275.049 19.811C277.947 19.811 279.534 20.777 279.81 22.709C282.064 20.777 284.525 19.811 287.193 19.811C292.529 19.811 295.933 21.398 297.405 24.572C299.659 21.352 302.879 19.742 307.065 19.742C310.147 19.742 312.585 20.547 314.379 22.157C316.173 23.721 317.07 25.699 317.07 28.091C317.07 28.781 316.932 30 316.656 31.748C315.598 38.648 315.069 42.696 315.069 43.892C315.069 46.054 315.782 47.135 317.208 47.135C318.404 47.135 319.669 46.353 321.003 44.789C322.383 43.179 323.487 40.718 324.315 37.406C325.879 39.062 326.822 40.373 327.144 41.339C324.752 49.343 320.52 53.345 314.448 53.345C311.596 53.345 309.48 52.471 308.1 50.723C306.72 48.975 306.03 47.135 306.03 45.203L307.686 29.954C307.686 28.712 307.364 27.677 306.72 26.849C306.076 26.021 305.041 25.607 303.615 25.607C302.235 25.607 301.016 26.136 299.958 27.194C298.9 28.252 298.164 29.609 297.75 31.265C296.37 42.949 295.473 50.194 295.059 53H286.158Z" fill="black"/>
</svg>
